<svg width="450" height="140" xmlns="http://www.w3.org/2000/svg" style="vector-effect: non-scaling-stroke;" stroke="null">
 <!-- Created with Method Draw - http://github.com/duopixel/Method-Draw/ -->

 <g stroke="null">
  <title stroke="null">background</title>
  <rect stroke="null" fill="#fff" id="canvas_background" height="142" width="452" y="-1" x="-1"/>
  <g style="vector-effect: non-scaling-stroke;" stroke="null" display="none" overflow="visible" y="0" x="0" height="100%" width="100%" id="canvasGrid">
   <rect fill="url(#gridpattern)" stroke-width="0" y="0" x="0" height="100%" width="100%"/>
  </g>
 </g>
 <g stroke="null">
  <title stroke="null">Layer 1</title>
  <!-- Created with Method Draw - http://github.com/duopixel/Method-Draw/ -->
  <g stroke="null" id="svg_33">
   <g stroke="null" transform="matrix(1.2352902858714485,0,0,1.2552444465893433,-1473.4251230277896,-1461.9361692103305) " id="svg_30">
    <title stroke="null" transform="translate(0,-1.4484748840332031) translate(0,1.4484748840332031) translate(-1.4718726873397827,2.2737367544323206e-13) translate(1.4718726873397827,2.2737367544323206e-13) translate(1.4718726873397827,2.2737367544323206e-13) translate(-1.4718726873397827,2.2737367544323206e-13) translate(0,1.4484748840332031) translate(-1.4718726873397827,2.2737367544323206e-13) translate(-1.4718726873397827,2.2737367544323206e-13) translate(0,1.4484748840332031) translate(-1.4718726873397827,2.2737367544323206e-13) translate(-1.4718726873397827,2.2737367544323206e-13) translate(-1.4718726873397827,2.2737367544323206e-13) translate(-1.4718726873397827,2.2737367544323206e-13) translate(-1.4718726873397827,2.2737367544323206e-13) translate(-1.4718726873397827,2.2737367544323206e-13) translate(0,-1.266008973121643) translate(-1.2293663024902344,0) translate(1.2293663024902344,0) translate(1.2293663024902344,0) translate(1.2293663024902344,0) translate(1.2293663024902344,0) translate(1.2293663024902344,0) translate(1.2293663024902344,0) translate(1.2293663024902344,0) translate(1.2293663024902344,0) translate(0,-1.266008973121643) translate(1.2293663024902344,0) translate(1.2293663024902344,0) translate(1.2293663024902344,0) translate(1.2293663024902344,0) translate(1.2293663024902344,0) translate(1.2293663024902344,0) translate(-1.111929178237915,0) translate(0,-1.1088635921478271) translate(0,-1.1088635921478271) translate(-1.111929178237915,0) translate(-1.111929178237915,0) translate(0,-1.1088635921478271) translate(0,-1.1088635921478271) translate(-1.111929178237915,0) translate(-1.111929178237915,0) translate(-1.111929178237915,0) translate(-1.111929178237915,0) translate(-1.111929178237915,0) translate(-1.111929178237915,0) translate(-1.111929178237915,0) translate(-1.111929178237915,0) translate(-1.111929178237915,0) translate(-1.111929178237915,0) translate(0,1.351109266281128) translate(0,1.351109266281128) translate(0,1.351109266281128) translate(1.361675500869751,-2.2737367544323206e-13) translate(0,1.351109266281128) translate(1.361675500869751,-2.2737367544323206e-13) translate(1.361675500869751,-2.2737367544323206e-13) translate(0,1.351109266281128) translate(1.361675500869751,-2.2737367544323206e-13) translate(0,1.351109266281128) translate(0,1.351109266281128) translate(0,1.351109266281128) translate(1.361675500869751,-2.2737367544323206e-13) translate(-1.361675500869751,-2.2737367544323206e-13) translate(0,-1.351109266281128) translate(0,-1.351109266281128) translate(0,-1.351109266281128) translate(-1.361675500869751,-2.2737367544323206e-13) translate(0,-1.351109266281128) translate(0,-1.351109266281128) translate(0,-1.351109266281128) translate(0,-1.351109266281128) translate(0,-1.351109266281128) translate(0,-1.351109266281128) translate(0,-1.351109266281128) translate(0,-1.351109266281128) translate(0,-1.351109266281128) translate(0,-1.351109266281128) translate(0,-1.351109266281128) translate(0,-1.351109266281128) translate(0,-1.351109266281128) translate(-1.361675500869751,-2.2737367544323206e-13) translate(-1.361675500869751,-2.2737367544323206e-13) translate(-1.361675500869751,-2.2737367544323206e-13) translate(-1.361675500869751,-2.2737367544323206e-13) translate(-1.5100622177124023,-41.916587829589844) translate(-95.17230987548828,-220.87603759765625) translate(-3916.95751953125,-2289.62255859375) translate(5197.52490234375,0) translate(0,3584.5) ">background</title>
    <rect stroke="null" x="1171.275036" y="1016.205419" width="582" height="402" id="svg_28" fill="#fff"/>
    <g stroke="null" id="svg_27" display="none">
     <rect stroke="null" id="svg_31" width="580" height="400" x="1172.275036" y="1017.205419" stroke-width="0" fill="url(#gridpattern)"/>
    </g>
   </g>
   <g stroke="null" transform="matrix(1.2352902858714485,0,0,1.2552444465893433,-1473.4251230277896,-1461.9361692103305) " id="svg_32">
    <title stroke="null" transform="translate(0,-1.4484748840332031) translate(0,1.4484748840332031) translate(-1.4718726873397827,2.2737367544323206e-13) translate(1.4718726873397827,2.2737367544323206e-13) translate(1.4718726873397827,2.2737367544323206e-13) translate(-1.4718726873397827,2.2737367544323206e-13) translate(0,1.4484748840332031) translate(-1.4718726873397827,2.2737367544323206e-13) translate(-1.4718726873397827,2.2737367544323206e-13) translate(0,1.4484748840332031) translate(-1.4718726873397827,2.2737367544323206e-13) translate(-1.4718726873397827,2.2737367544323206e-13) translate(-1.4718726873397827,2.2737367544323206e-13) translate(-1.4718726873397827,2.2737367544323206e-13) translate(-1.4718726873397827,2.2737367544323206e-13) translate(-1.4718726873397827,2.2737367544323206e-13) translate(0,-1.266008973121643) translate(-1.2293663024902344,0) translate(1.2293663024902344,0) translate(1.2293663024902344,0) translate(1.2293663024902344,0) translate(1.2293663024902344,0) translate(1.2293663024902344,0) translate(1.2293663024902344,0) translate(1.2293663024902344,0) translate(1.2293663024902344,0) translate(0,-1.266008973121643) translate(1.2293663024902344,0) translate(1.2293663024902344,0) translate(1.2293663024902344,0) translate(1.2293663024902344,0) translate(1.2293663024902344,0) translate(1.2293663024902344,0) translate(-1.111929178237915,0) translate(0,-1.1088635921478271) translate(0,-1.1088635921478271) translate(-1.111929178237915,0) translate(-1.111929178237915,0) translate(0,-1.1088635921478271) translate(0,-1.1088635921478271) translate(-1.111929178237915,0) translate(-1.111929178237915,0) translate(-1.111929178237915,0) translate(-1.111929178237915,0) translate(-1.111929178237915,0) translate(-1.111929178237915,0) translate(-1.111929178237915,0) translate(-1.111929178237915,0) translate(-1.111929178237915,0) translate(-1.111929178237915,0) translate(0,1.351109266281128) translate(0,1.351109266281128) translate(0,1.351109266281128) translate(1.361675500869751,-2.2737367544323206e-13) translate(0,1.351109266281128) translate(1.361675500869751,-2.2737367544323206e-13) translate(1.361675500869751,-2.2737367544323206e-13) translate(0,1.351109266281128) translate(1.361675500869751,-2.2737367544323206e-13) translate(0,1.351109266281128) translate(0,1.351109266281128) translate(0,1.351109266281128) translate(1.361675500869751,-2.2737367544323206e-13) translate(-1.361675500869751,-2.2737367544323206e-13) translate(0,-1.351109266281128) translate(0,-1.351109266281128) translate(0,-1.351109266281128) translate(-1.361675500869751,-2.2737367544323206e-13) translate(0,-1.351109266281128) translate(0,-1.351109266281128) translate(0,-1.351109266281128) translate(0,-1.351109266281128) translate(0,-1.351109266281128) translate(0,-1.351109266281128) translate(0,-1.351109266281128) translate(0,-1.351109266281128) translate(0,-1.351109266281128) translate(0,-1.351109266281128) translate(0,-1.351109266281128) translate(0,-1.351109266281128) translate(0,-1.351109266281128) translate(-1.361675500869751,-2.2737367544323206e-13) translate(-1.361675500869751,-2.2737367544323206e-13) translate(-1.361675500869751,-2.2737367544323206e-13) translate(-1.361675500869751,-2.2737367544323206e-13) translate(-1.5100622177124023,-41.916587829589844) translate(-95.17230987548828,-220.87603759765625) translate(-3916.95751953125,-2289.62255859375) translate(5197.52490234375,0) translate(0,3584.5) ">Layer 1</title>
    <g stroke="null" id="svg_16">
     <g stroke="null" id="svg_25" transform="matrix(2.9598798519173783,0,0,2.9598798519173783,-864.7574720104659,-1854.900488582806) ">
      <path stroke="null" fill="#777777" d="m715.296723,1023.182084c-8.757,0 -15.882,7.125 -15.882,15.882c0,8.758 7.125,15.882 15.882,15.882c8.758,0 15.883,-7.124 15.883,-15.882c0,-8.758 -7.125,-15.882 -15.883,-15.882zm0,30.543c-8.083,0 -14.66,-6.577 -14.66,-14.661s6.577,-14.661 14.66,-14.661c8.084,0 14.661,6.577 14.661,14.661s-6.577,14.661 -14.661,14.661z" id="svg_26"/>
     </g>
     <g stroke="null" id="svg_22" transform="matrix(2.9598798519173783,0,0,2.9598798519173783,-864.7574720104659,-1854.900488582806) ">
      <path stroke="null" fill="#077AF4" d="m755.729723,1023.182084c-8.757,0 -15.882,7.125 -15.882,15.882c0,8.759 7.125,15.882 15.882,15.882c8.758,0 15.883,-7.123 15.883,-15.882c0,-8.757 -7.125,-15.882 -15.883,-15.882zm0,30.544c-8.083,0 -14.66,-6.578 -14.66,-14.661c0,-8.083 6.577,-14.661 14.66,-14.661c8.084,0 14.661,6.577 14.661,14.661c0,8.083 -6.577,14.661 -14.661,14.661z" id="svg_24"/>
      <path stroke="null" fill="#077AF4" d="m763.214723,1032.550084l-9.388,10.562l-5.656,-4.524c-0.263,-0.211 -0.648,-0.167 -0.858,0.095c-0.211,0.264 -0.168,0.648 0.095,0.859l6.108,4.887c0.113,0.09 0.248,0.134 0.382,0.134c0.169,0 0.337,-0.069 0.457,-0.205l9.774,-10.996c0.224,-0.251 0.201,-0.638 -0.051,-0.862c-0.253,-0.225 -0.639,-0.203 -0.863,0.05z" id="svg_23"/>
     </g>
     <g stroke="null" id="svg_20" transform="matrix(2.9598798519173783,0,0,2.9598798519173783,-864.7574720104659,-1854.900488582806) " fill="#fff">
      <path stroke="null" fill="#e5e5e5" d="m796.829993,1023.182104c-8.757,0 -15.882,7.125 -15.882,15.882c0,8.758 7.125,15.882 15.882,15.882c8.758,0 15.883,-7.124 15.883,-15.882c0,-8.758 -7.125,-15.882 -15.883,-15.882zm0,30.543c-8.083,0 -14.66,-6.577 -14.66,-14.661s6.577,-14.661 14.66,-14.661c8.084,0 14.661,6.577 14.661,14.661s-6.577,14.661 -14.661,14.661z" id="svg_21"/>
     </g>
     <ellipse stroke="#DDDDDD" fill="#e5e5e5" stroke-width="1.5" stroke-opacity="null" fill-opacity="null" cx="1493.960227" cy="1220.755457" id="svg_19" rx="44.610779" ry="44.610774"/>
     <g stroke="null" id="svg_17" transform="matrix(2.9598798519173783,0,0,2.9598798519173783,-864.7574720104659,-1854.900488582806) ">
      <path stroke="null" fill="#777777" d="m796.906233,1023.182084c-8.757,0 -15.882,7.125 -15.882,15.882c0,8.758 7.125,15.882 15.882,15.882c8.758,0 15.883,-7.124 15.883,-15.882c0,-8.758 -7.125,-15.882 -15.883,-15.882zm0,30.543c-8.083,0 -14.66,-6.577 -14.66,-14.661s6.577,-14.661 14.66,-14.661c8.084,0 14.661,6.577 14.661,14.661s-6.577,14.661 -14.661,14.661z" id="svg_18"/>
     </g>
    </g>
   </g>
  </g>
 </g>
</svg>